<svg width="208" height="20" viewBox="0 0 208 20" fill="none" xmlns="http://www.w3.org/2000/svg">
<g clip-path="url(#clip0_1_1135)">
<rect width="1440" height="1491" transform="translate(-120 -56)" fill="white"/>
<g clip-path="url(#clip1_1_1135)">
<path d="M16.7036 0.304596V19.6952C16.7036 19.8614 16.5928 19.9722 16.4266 19.9722H14.4044C13.4626 19.9722 12.5762 19.5013 12.0776 18.6979L2.93629 4.54282L3.2133 11.6342V19.6952C3.2133 19.8614 3.10249 19.9722 2.93629 19.9722H0.277008C0.110803 19.9722 0 19.8614 0 19.6952V0.304596C0 0.138391 0.110803 0.0275879 0.277008 0.0275879H2.27147C3.2133 0.0275879 4.07202 0.498502 4.59834 1.30183L13.7396 15.4293L13.4626 8.39324V0.304596C13.4626 0.138391 13.5734 0.0275879 13.7396 0.0275879H16.3989C16.5651 0.0275879 16.7036 0.166092 16.7036 0.304596Z" fill="#262626"/>
<path d="M43.9612 19.9723H41.1357C40.9418 19.9723 40.8033 19.7784 40.8864 19.5845L48.3656 0.277008C48.421 0.110803 48.5872 0 48.7535 0H52.2992C52.4654 0 52.6316 0.110803 52.687 0.277008L60.1662 19.5845C60.2493 19.7784 60.1108 19.9723 59.9169 19.9723H57.0914C56.9806 19.9723 56.8698 19.8892 56.8421 19.8061L50.8033 3.90582C50.7202 3.65651 50.3878 3.65651 50.277 3.90582L44.2382 19.8061C44.1828 19.9169 44.072 19.9723 43.9612 19.9723Z" fill="#262626"/>
<path d="M110.083 19.9723H107.258C107.064 19.9723 106.925 19.7784 107.008 19.5845L114.488 0.277008C114.543 0.110803 114.709 0 114.876 0H118.421C118.587 0 118.754 0.110803 118.809 0.277008L126.288 19.5845C126.371 19.7784 126.233 19.9723 126.039 19.9723H123.213C123.103 19.9723 122.992 19.8892 122.964 19.8061L116.925 3.90582C116.842 3.65651 116.51 3.65651 116.399 3.90582L110.36 19.8061C110.305 19.9169 110.194 19.9723 110.083 19.9723Z" fill="#262626"/>
<path d="M80.2772 19.5291L74.6816 12.3823C77.8395 11.7729 79.6955 9.63991 79.6955 6.37121C79.6955 2.6039 77.2578 0.0554199 72.9088 0.0554199H65.0972C64.8755 0.0554199 64.6816 0.249326 64.6816 0.470932C64.6816 1.93908 65.8728 3.13021 67.3409 3.13021H72.5764C75.208 3.13021 76.4545 4.45985 76.4545 6.39891C76.4545 8.33797 75.2357 9.69531 72.5764 9.69531H65.0972C64.8755 9.69531 64.6816 9.88922 64.6816 10.1108V19.6953C64.6816 19.8615 64.7924 19.9723 64.9586 19.9723H67.6179C67.7841 19.9723 67.8949 19.8615 67.8949 19.6953V12.5485H70.9697L75.8451 18.892C76.3714 19.5845 77.1747 19.9723 78.0334 19.9723H80.0556C80.2772 19.9723 80.4157 19.6953 80.2772 19.5291Z" fill="#262626"/>
<path d="M35.5124 0.0275879H23.1301C22.9362 0.0275879 22.77 0.193793 22.77 0.387699C22.77 1.88354 23.9889 3.10238 25.4847 3.10238H35.5124C35.6786 3.10238 35.7894 2.99158 35.7894 2.82537V0.304596C35.7894 0.166092 35.6786 0.0275879 35.5124 0.0275879ZM35.5124 16.8974H26.2603C26.0941 16.8974 25.9833 16.7866 25.9833 16.6204V11.6065C25.9833 11.4403 26.0941 11.3295 26.2603 11.3295H34.7922C34.9584 11.3295 35.0692 11.2187 35.0692 11.0525V8.53174C35.0692 8.36554 34.9584 8.25473 34.7922 8.25473H23.1855C22.9639 8.25473 22.77 8.44864 22.77 8.67025V19.5567C22.77 19.7783 22.9639 19.9722 23.1855 19.9722H35.5124C35.6786 19.9722 35.7894 19.8614 35.7894 19.6952V17.1744C35.7894 17.0082 35.6786 16.8974 35.5124 16.8974Z" fill="#262626"/>
<path d="M98.5317 19.0305L90.914 10.4432V19.6953C90.914 19.8615 90.8032 19.9723 90.637 19.9723H87.9777C87.8115 19.9723 87.7007 19.8615 87.7007 19.6953V0.277008C87.7007 0.110803 87.8115 0 87.9777 0H90.637C90.8032 0 90.914 0.110803 90.914 0.277008V9.14127L98.1716 0.941828C98.6979 0.360111 99.4458 0 100.249 0H102.438C102.687 0 102.798 0.277008 102.631 0.470914L94.432 9.75069L103.047 19.5291C103.213 19.6953 103.075 20 102.825 20H100.609C99.806 19.9723 99.058 19.6399 98.5317 19.0305Z" fill="#262626"/>
<path d="M143.601 3.07479H137.784V19.6953C137.784 19.8615 137.673 19.9723 137.507 19.9723H134.848C134.682 19.9723 134.571 19.8615 134.571 19.6953V3.07479H128.781C128.615 3.07479 128.504 2.96399 128.504 2.79778V0.277008C128.504 0.110803 128.615 0 128.781 0H143.629C143.795 0 143.906 0.110803 143.906 0.277008V2.79778C143.878 2.96399 143.768 3.07479 143.601 3.07479Z" fill="#262626"/>
<path d="M168.781 0.332297V19.7229C168.781 19.8891 168.67 19.9999 168.504 19.9999H166.482C165.54 19.9999 164.654 19.529 164.155 18.7256L155.014 4.57052L155.319 11.6342V19.6952C155.319 19.8614 155.208 19.9722 155.042 19.9722H152.355C152.188 19.9722 152.078 19.8614 152.078 19.6952V0.304596C152.078 0.138391 152.188 0.0275879 152.355 0.0275879H154.349C155.291 0.0275879 156.15 0.498502 156.676 1.30183L165.817 15.4293L165.54 8.39324V0.332297C165.54 0.166092 165.651 0.0552887 165.817 0.0552887H168.477C168.643 0.0552887 168.781 0.193793 168.781 0.332297Z" fill="#CB015B"/>
<path d="M187.257 0.0554199H174.875C174.681 0.0554199 174.515 0.221625 174.515 0.415531C174.515 1.91138 175.734 3.13021 177.23 3.13021H187.257C187.424 3.13021 187.535 3.01941 187.535 2.8532V0.332428C187.535 0.193924 187.424 0.0554199 187.257 0.0554199ZM177.728 19.723V11.6621C177.728 11.4959 177.839 11.3851 178.005 11.3851H186.537C186.703 11.3851 186.814 11.2743 186.814 11.1081V8.58728C186.814 8.42107 186.703 8.31027 186.537 8.31027H174.931C174.709 8.31027 174.515 8.50417 174.515 8.72578V19.6122C174.515 19.8338 174.709 20.0277 174.931 20.0277H177.451C177.618 20 177.728 19.8892 177.728 19.723Z" fill="#CB015B"/>
<path d="M207.091 3.10238H201.274V19.7229C201.274 19.8891 201.163 19.9999 200.997 19.9999H198.338C198.172 19.9999 198.061 19.8891 198.061 19.7229V3.10238H192.244C192.078 3.10238 191.967 2.99158 191.967 2.82537V0.304596C191.967 0.138391 192.078 0.0275879 192.244 0.0275879H207.091C207.258 0.0275879 207.368 0.138391 207.368 0.304596V2.82537C207.368 2.99158 207.258 3.10238 207.091 3.10238Z" fill="#CB015B"/>
</g>
</g>
<defs>
<clipPath id="clip0_1_1135">
<rect width="1440" height="1491" fill="white" transform="translate(-120 -56)"/>
</clipPath>
<clipPath id="clip1_1_1135">
<rect width="207.368" height="20" fill="white"/>
</clipPath>
</defs>
</svg>
